HIERARCHY
ROOT Hips
{
  OFFSET 0 0 0
  CHANNELS 6 Xposition Yposition Zposition Zrotation Xrotation Yrotation
  JOINT Spine
  {
    OFFSET 0.00000000 0.00000000 0.00000000
    CHANNELS 3 Zrotation Xrotation Yrotation
    JOINT Spine1
    {
      OFFSET 0.19000000 0.00000000 0.00000000
      CHANNELS 3 Zrotation Xrotation Yrotation
      JOINT Neck
      {
        OFFSET 0.22500000 0.00600000 0.00000000
        CHANNELS 3 Zrotation Xrotation Yrotation
        JOINT Head
        {
          OFFSET 0.14000000 0.00030878 0.00000000
          CHANNELS 3 Zrotation Xrotation Yrotation
          End Site
          {
            OFFSET 0.17000000 0.00000000 0.00000000
          }
        }
      }
      JOINT LeftShoulder
      {
        OFFSET 0.19800000 0.03700000 0.04300000
        CHANNELS 3 Zrotation Xrotation Yrotation
        JOINT LeftArm
        {
          OFFSET 0.08000000 0.00000000 0.00000000
          CHANNELS 3 Zrotation Xrotation Yrotation
          JOINT LeftForeArm
          {
            OFFSET 0.15200000 0.00000000 0.00000000
            CHANNELS 3 Zrotation Xrotation Yrotation
            JOINT LeftHand
            {
              OFFSET 0.17800000 0.00000000 0.00000000
              CHANNELS 3 Zrotation Xrotation Yrotation
              End Site
              {
                OFFSET 0.07200000 0.00000000 0.00000000
              }
            }
          }
        }
      }
      JOINT RightShoulder
      {
        OFFSET 0.19800000 0.03700000 -0.04300000
        CHANNELS 3 Zrotation Xrotation Yrotation
        JOINT RightArm
        {
          OFFSET 0.08000000 0.00000000 0.00151654
          CHANNELS 3 Zrotation Xrotation Yrotation
          JOINT RightForeArm
          {
            OFFSET 0.15200000 0.00000000 0.00000000
            CHANNELS 3 Zrotation Xrotation Yrotation
            JOINT RightHand
            {
              OFFSET 0.17800000 0.00000000 0.00000000
              CHANNELS 3 Zrotation Xrotation Yrotation
              End Site
              {
                OFFSET 0.07200000 0.00000000 0.00000000
              }
            }
          }
        }
      }
    }
  }
  JOINT LeftUpLeg
  {
    OFFSET 0.05984250 -0.07666000 0.04788790
    CHANNELS 3 Zrotation Xrotation Yrotation
    JOINT LeftLeg
    {
      OFFSET 0.16000000 0.00000000 0.00000000
      CHANNELS 3 Zrotation Xrotation Yrotation
      JOINT LeftFoot
      {
        OFFSET 0.18000000 0.00000000 0.00000000
        CHANNELS 3 Zrotation Xrotation Yrotation
        End Site
        {
          OFFSET 0.00000000 -0.10800000 0.00000000
        }
      }
    }
  }
  JOINT RightUpLeg
  {
    OFFSET 0.05984250 -0.07665980 -0.04788790
    CHANNELS 3 Zrotation Xrotation Yrotation
    JOINT RightLeg
    {
      OFFSET 0.16000000 0.00000000 0.00000000
      CHANNELS 3 Zrotation Xrotation Yrotation
      JOINT RightFoot
      {
        OFFSET 0.18000000 0.00000000 0.00000000
        CHANNELS 3 Zrotation Xrotation Yrotation
        End Site
        {
          OFFSET 0.00000000 -0.10800000 0.00000000
        }
      }
    }
  }
  JOINT Tail
  {
    OFFSET 0.06836960 -0.00722574 0.00000000
    CHANNELS 3 Zrotation Xrotation Yrotation
    JOINT Tail1
    {
      OFFSET 0.12000000 0.00000000 0.00000000
      CHANNELS 3 Zrotation Xrotation Yrotation
      End Site
      {
        OFFSET 0.12000000 0.00000000 0.00000000
      }
    }
  }
}
MOTION
Frames:	13
Frame Time:	0.0166667
0.0000000 0.5207500 0.0000000 8.80790 3.76041 -0.58224 -172.99 -0.76463 3.72698 2.64451 0.748447 -12.6336 -23.6352 -3.7871 8.94177 -121.389 71.5156 116.825 -104.468 -25.292 -146.921 132.594 -36.0807 -138.548 -31.6843 12.3227 -3.29186 -21.3944 2.73052 -13.1956 73.5913 -32.3901 44.3507 36.0035 -27.0275 -51.2977 -68.2346 -25.1381 0.183097 -27.9054 -6.90339 22.1542 -127.35 1.19208 -12.148 111.467 12.0059 -1.71467 31.1289 -2.32536 -4.23218 -138.319 4.57958 6.68372 112.572 -2.48073 -3.99924 17.5036 -1.74821 -2.67415 -11.501 12.7199 -64.7021 2.87678 -0.242718 -18.0754 
-0.0736916 0.5226140 -0.0053010 3.14685 2.20617 -0.99665 -166.117 0.314039 1.90235 0.573272 1.67504 -9.42761 -26.272 -3.6344 4.61978 -117.771 73.6331 113.155 -105.05 -26.3254 -145.943 143.907 -29.4964 -125.849 -8.57874 -2.33466 -7.00848 -10.2188 0.736146 -1.66507 76.0738 -28.2305 43.0387 38.1505 -37.3142 -48.4023 -63.7216 -27.2493 1.51247 -30.2311 -8.50939 25.842 -128.076 0.714601 -12.4046 116.347 13.5958 -1.92048 23.4623 -2.39395 -4.17927 -139.56 3.2728 6.92289 110.156 -1.33177 -4.08922 18.3863 -1.82242 -2.88806 -5.87914 11.829 -62.0068 5.28888 -1.43906 -17.6218 
-0.1445368 0.5239010 -0.0109248 -4.13928 0.96937 -1.79615 -158.329 0.701138 -1.30997 -1.80605 2.08089 -4.5799 -28.03 -3.49728 -0.219747 -113.469 72.4135 109.043 -105.138 -26.577 -145.518 149.734 -30.0329 -120.045 -9.8659 -18.4365 -5.05903 11.2647 3.28108 4.99849 78.1354 -24.7643 41.6213 39.6842 -44.4111 -45.3728 -54.999 -25.1693 2.59349 -30.0023 -8.10465 25.4317 -127.721 0.683186 -13.3346 120.284 16.5806 -1.96682 18.833 -2.45766 -4.27707 -138.701 1.32192 6.36518 105.399 -1.11032 -4.18808 21.2273 -1.74956 -2.89589 1.55291 10.6672 -59.6475 7.56773 -2.4644 -15.9744 
-0.2142979 0.5212870 -0.0157427 -11.3751 0.39223 -2.67493 -153.069 0.788653 -3.84369 -1.45476 2.37695 -1.12486 -29.7874 -4.36295 -3.70688 -109.578 70.2135 106.806 -106.165 -28.6705 -143.3 149.716 -36.0509 -114.907 -29.3141 -42.855 -2.5374 34.0892 5.79677 -9.7488 79.2346 -23.0942 41.2966 38.0864 -47.1815 -45.871 -41.9872 -23.3747 3.51609 -26.189 -3.7364 16.7619 -127.91 0.853396 -14.6285 123.346 18.9282 -2.07228 15.7155 -2.41173 -4.1545 -137.326 -0.649999 5.28486 99.0362 -2.13982 -4.28972 25.4034 -1.49969 -2.68951 9.04065 9.25614 -57.309 9.61618 -3.0971 -13.9784 
-0.2827241 0.5160940 -0.0192292 -18.4497 0.25571 -3.67443 -148.71 0.50498 -6.07647 -0.890366 2.53945 1.55885 -31.0726 -5.78608 -5.95754 -106.014 68.4818 106.078 -108.069 -31.8868 -141.471 142.876 -43.6269 -115.04 -45.9528 -67.8392 9.7976 39.0632 2.12456 -33.7196 79.7148 -22.4867 41.5789 32.8848 -45.696 -50.6661 -24.9303 -19.6756 3.98464 -22.3947 -0.214437 7.7495 -128.593 0.76666 -15.6582 124.977 20.0764 -2.15577 14.4323 -2.33628 -4.02026 -134.972 -2.69793 3.6808 91.1453 -4.26678 -4.03263 31.7353 -0.928275 -2.20662 16.4373 7.76098 -54.5201 11.0575 -3.2674 -12.0302 
-0.3499335 0.5097210 -0.0220132 -24.3481 0.54615 -4.82382 -145.617 -0.0345286 -8.79356 -0.742527 2.691 4.43581 -32.0083 -6.58415 -8.24764 -101.97 66.7733 107.124 -109.942 -34.8794 -140.328 133.695 -47.7258 -119.104 -41.9301 -74.1631 37.0915 40.5667 0.773301 -37.2758 79.6879 -22.2546 40.6099 23.44 -43.7938 -57.3324 -7.35157 -11.9958 4.07238 -17.7967 1.02803 1.92392 -130.426 0.497839 -15.5588 124.274 19.8767 -2.14904 15.2908 -2.29335 -4.00213 -132.083 -4.79599 0.736157 81.8962 -9.82256 -2.83527 39.5191 0.401147 -0.955589 22.8172 5.91138 -50.6955 11.546 -2.93656 -10.0815 
-0.4170883 0.5008530 -0.0239693 -28.5543 0.79763 -5.86921 -144.375 -0.549159 -11.9556 -0.653045 2.84596 8.1957 -32.6512 -6.55499 -11.0142 -98.3099 65.0093 109.166 -110.994 -36.6999 -139.478 128.276 -47.6589 -122.048 -40.8687 -73.6861 54.1264 40.0531 1.66104 -32.702 79.2045 -22.723 39.8588 25.7951 -54.8624 -54.0501 -24.7044 -2.84619 1.36385 4.30082 1.00764 -10.2734 -134.201 -0.308097 -15.5314 121.414 19.5845 -1.74949 18.6373 -2.3301 -4.19123 -129.988 -5.38387 -2.43554 75.2129 -12.9684 -1.06617 49.4991 1.67072 -0.373227 27.2952 5.17796 -46.3714 10.7745 -2.36092 -8.03682 
-0.4845772 0.4898770 -0.0253905 -30.8731 0.64913 -6.30676 -143.89 -1.16254 -12.7905 -1.92118 2.41625 8.7888 -32.3306 -6.60611 -11.3282 -96.4536 64.1673 111.296 -111.982 -38.5817 -138.425 125.48 -46.9256 -124.347 -60.6538 -70.0521 47.3062 37.2751 3.30871 -22.7174 78.6394 -23.7702 40.7295 36.2339 -62.9355 -44.7133 -43.0981 -10.8151 -2.60388 9.67845 2.57881 -29.1252 -137.954 -1.00744 -14.0629 114.968 19.964 -0.881585 22.5926 -2.59483 -4.78458 -126.728 -4.95202 -4.69856 70.1063 -12.5811 0.086548 58.2044 1.86378 -0.864798 29.5323 5.4995 -41.7001 9.13346 -1.97332 -6.15406 
-0.5530480 0.4774760 -0.0266794 -30.6975 0.17144 -6.58821 -145.27 -1.95732 -12.6507 -3.98219 1.45967 7.7935 -30.6649 -7.21073 -9.2497 -96.0943 65.1371 111.867 -112.344 -39.7992 -137.124 125.963 -43.7165 -124.674 -73.2615 -68.0978 42.6833 28.4587 3.69143 -21.0047 77.7847 -25.5973 42.6137 47.5832 -68.0763 -38.9429 -62.1048 1.9371 -4.30608 27.9619 -4.77058 -34.9431 -141.004 -1.9667 -12.2549 104.83 19.5105 0.625459 26.8707 -2.84943 -5.28882 -123.153 -4.20259 -6.11636 68.6286 -9.19818 0.673706 58.6522 1.62574 -1.20584 28.3071 7.76749 -36.9704 7.65396 -2.53579 -4.46079 
-0.6212575 0.4655830 -0.0282237 -28.7841 -0.18698 -6.74157 -147.132 -3.0896 -12.5165 -7.91822 0.0667494 6.70019 -27.6998 -7.3119 -6.69614 -96.942 66.1461 113.21 -112.246 -40.3313 -135.967 125.732 -38.7825 -126.171 -88.0866 -62.0369 32.325 22.8438 3.42634 -15.9817 76.6864 -27.6039 43.7378 60.5814 -70.4184 -31.1392 -79.0552 11.6052 -6.59729 40.1769 -10.6837 -38.1934 -142.715 -2.6371 -11.3812 90.2151 20.2971 3.6241 35.1497 -3.41348 -6.21036 -116.598 -2.95525 -5.89632 66.0386 -8.12697 0.0274539 58.2801 1.71232 -1.10045 24.8297 10.32 -32.2906 5.27777 -3.71274 -3.44089 
-0.6874078 0.4509920 -0.0301605 -25.9750 -1.15428 -6.64888 -149.418 -4.48183 -11.7216 -13.2793 -1.74839 5.1508 -23.2005 -6.64044 -4.59219 -98.0998 66.7682 116.301 -112.087 -40.4201 -135.437 125.188 -31.9166 -126.877 -94.0255 -54.2032 26.1888 17.7024 2.76708 -12.2908 76.1076 -28.6371 44.2046 69.1498 -68.8486 -23.9792 -93.3845 8.30602 -9.96109 35.717 -11.1969 -54.4559 -143.308 -3.41469 -9.57308 74.7367 21.1485 6.71941 45.8294 -4.12417 -6.88336 -108.971 -1.23394 -2.73427 74.2938 -5.74662 -2.3579 28.0673 0.205394 -0.63478 20.2645 13.248 -28.5693 2.04141 -5.21511 -2.58239 
-0.7567492 0.4335540 -0.0330499 -21.2740 -1.82261 -6.16405 -153.853 -5.66704 -10.481 -18.848 -3.28295 2.81322 -17.221 -5.57776 -1.62909 -100.099 68.1356 120.171 -111.911 -40.2326 -135.332 124.152 -24.7755 -126.858 -91.4825 -50.2374 25.3378 15.3787 2.39438 -13.1534 76.026 -28.7422 44.1657 69.1874 -65.3717 -23.924 -104.014 12.0557 -11.6912 34.4271 -10.1325 -55.0688 -144.451 -4.3195 -7.63087 63.0299 21.0771 9.03079 57.2249 -4.66666 -7.09681 -104.349 0.0331188 -0.810775 83.1303 -7.79646 -3.81841 11.1396 -0.316079 -0.310057 13.31 16.2797 -25.2721 -1.50706 -7.51471 -1.74972 
-0.8236378 0.4187220 -0.0347847 -16.1430 -2.24530 -5.20444 -158.811 -6.60463 -8.04098 -23.7601 -4.32636 -0.284979 -10.5203 -4.32938 1.22564 -103.336 68.9857 123.968 -111.356 -39.5861 -135.094 123.905 -15.8905 -125.9 -84.8997 -45.3798 24.3511 13.8443 2.24338 -14.7258 75.6246 -28.9475 43.2094 64.5064 -55.9455 -29.2504 -109.846 17.2054 -13.2142 34.3699 -9.18723 -51.65 -143.187 -6.89419 -6.09801 58.6931 16.7045 9.96836 61.0083 -4.46418 -6.69099 -102.841 2.3265 1.4715 88.3175 -8.98607 -4.59579 9.77306 -0.306605 -0.0594266 5.72801 19.0644 -21.8029 -5.21916 -10.5675 -0.900094 
